Patient4_TMGait_0pt7_01_left_38_EMG.mot
version=1
nRows=37
nColumns=33
inDegrees=no
endheader
time	1LAddLong	2LGlutMax	3LGlutMed	4LIliopsoas	5LSemiMemb	6LBicFemLong	7LRecFem	8LVastMed	9LVastLat	10LGasMed	11LTibAnt	12lTibPost	13LPeroneusLong	14LSol	15LExtDigLong	16LFlexDigLong	17RAddLong	18RGlutMax	19RGlutMed	20RIliopsoas	21RSemiMemb	22RBicFemLong	23RRecFem	24RVastMed	25RVastLat	26RGasMed	27RTibAnt	28RTibPost	29RPeroneusLong	30RSol	31RExtDigLong	32RFlexDigLong
43.96	0.002136	0.23743	-0.005188	0.008545	-0.00885	0.012512	0.31647	0.012665	0.15808	0.050354	-0.011902	-0.00473	0.005188	-0.000916	0.1593	-0.011139	0.019989	0.18295	-0.41122	0.033569	0.14679	-0.059204	0.087738	0.027008	0.070953	-0.10925	0.56793	0.14206	0.41473	0.18417	-0.003662	0.000458
43.961	0.001526	0.16388	-0.009766	0.001678	-0.006866	-0.004425	0.28748	0.01709	0.15839	0.049133	-0.037537	-0.004578	-0.042572	-0.04425	0.11795	0.009155	-0.00824	0.14114	-0.4071	0.063019	0.057068	0.019989	0.080566	-0.082703	0.12604	-0.004272	0.44861	0.13092	0.29572	0.81604	-0.006714	0.001221
43.962	0.006714	0.13428	-0.043793	-0.014191	-0.001068	-0.01236	0.25299	0.014954	0.18051	0.014038	-0.049286	-0.013275	-0.015869	-0.055389	0.15396	0.005798	-0.038757	0.081024	-0.11566	-0.045013	-0.072937	0.063019	0.049133	0.018463	0.099335	0.1976	-0.17639	0.070343	0.076599	1.3243	-0.001984	0.009308
43.963	0.003052	0.09079	-0.062256	-0.022583	-0.007782	-0.013123	0.24429	0.016327	0.19928	-0.015869	0.010681	-0.012665	0.085144	0.000153	0.13077	0.019531	-0.0177	-0.005493	-0.084991	-0.11536	-0.14252	0.075073	0.05249	0.027008	0.013428	0.21637	-0.3447	-0.041046	-0.21713	1.1919	-0.004578	0.027008
43.964	0.00412	0.054779	-0.074005	-0.019684	-0.007782	0.010223	0.28229	0.013123	0.19409	-0.067291	0.1387	-0.011902	0.1857	-0.062561	0.053864	0.042267	0.014954	0.068207	-0.21393	-0.11215	0.054169	0.050354	-0.16235	0.003967	-0.072479	0.098419	-1.0129	-0.24292	-0.14618	0.53711	-0.006714	0.007935
43.965	0.007782	0.005493	-0.039673	-0.010071	-0.010376	-0.012665	0.31296	0.013733	0.18982	-0.032196	0.2092	-0.007782	0.13947	-0.1297	0.049133	-0.008545	0.042114	0.10346	-0.18555	-0.041656	0.023956	0.074615	-0.3035	-0.07309	-0.16953	0.017395	-0.99304	-0.055237	-0.13001	-0.17716	-0.00946	-0.002594
43.966	0.005646	0.012512	-0.043793	0.010071	-0.013733	-0.007782	0.37369	0.016785	0.2063	0.026398	0.20828	-0.015564	-0.050812	-0.14755	-0.12924	-0.019684	0.016022	0.14572	-0.2858	0.053864	-0.30212	0.21912	-0.12497	-0.18967	0.10666	0.016022	-0.46448	0.04837	-0.26627	-0.5368	-0.003204	-0.001831
43.967	0.003204	0.13504	-0.050354	0.013733	-0.010376	-0.02243	0.34576	0.016632	0.21912	0.031128	0.075684	-0.016327	-0.13611	-0.14374	0.65628	-0.006866	-0.001373	0.1294	-0.13229	0.066833	-0.49362	0.22644	0.14618	-0.19196	0.36407	0.045471	-0.15595	0.11185	-0.058746	-0.71701	-0.003052	-0.003815
43.968	0.009308	0.19119	-0.048676	-0.020905	-0.005493	-0.029907	0.34592	0.014496	0.23224	0.016937	-0.039978	-0.009003	-0.098114	-0.057373	0.4187	-0.005035	0.016785	0.1416	-0.11429	-0.028076	-0.48431	0.24597	0.27863	-0.22705	0.26932	0.034332	0.001373	0.089569	-0.039063	-0.41489	-0.002747	0.006409
43.969	0.006866	0.23193	-0.038452	-0.015106	-0.013733	-0.045013	0.31326	0.010834	0.22659	-0.026703	-0.045471	-0.015259	0.052795	0.038605	0.2887	-0.00412	-0.014191	0.14969	-0.22064	-0.13596	-0.12421	0.12787	0.28702	-0.20569	0.13336	0.018311	0.067139	-0.016327	-0.06012	-0.12909	0.002594	0.004425
43.97	0.004578	0.28824	-0.02655	0.002136	-0.022583	-0.039215	0.31342	0.00885	0.24002	-0.047302	0.083618	-0.010223	0.13443	0.13046	0.18997	0.015411	-0.033569	0.2858	-0.16708	-0.15182	0.46829	-0.081482	-0.13367	-0.16129	0.19699	0.020447	0.092621	-0.27405	-0.09079	0.066833	-0.001526	0.002594
43.971	0.001373	0.29663	-0.070953	0.003052	-0.018158	-0.069885	0.31403	0.013885	0.23193	-0.011902	0.098724	-0.010986	0.097656	0.11383	-0.37201	0.019989	-0.057068	0.30777	-0.14572	-0.11444	0.4567	-0.13519	-0.50552	-0.045929	0.31357	-0.004272	0.087585	0.25497	-0.029602	-0.093536	-0.001678	-0.000153
43.972	0.008545	0.27283	-0.086517	-0.008392	-0.00885	-0.067749	0.29694	0.015106	0.23743	0.042114	-0.014343	-0.017242	0.09491	0.022278	-0.42404	0.011444	-0.047302	0.30197	-0.34485	-0.044556	0.14755	-0.15137	-0.38742	0.065308	0.25543	-0.045471	0.10071	0.046234	-0.21744	-0.10742	-0.000916	-0.007019
43.973	0.00885	0.26001	-0.082855	0.000305	-0.018005	-0.084076	0.28854	0.00824	0.24262	0.053253	-0.1651	-0.007935	0.15656	-0.00885	-0.83252	0.062103	-0.017548	0.35263	-0.33539	0.12039	0.060577	-0.17685	-0.34103	0.19333	-0.085754	-0.049591	0.084381	-0.10834	-0.21133	-0.26093	-0.002747	-0.00946
43.974	0.007629	0.24124	-0.084229	0.002747	-0.023193	-0.08255	0.2655	0.006714	0.23346	0.045166	-0.17609	-0.005798	0.14877	-0.029602	-0.70984	0.001526	0.003204	0.30487	-0.34042	0.080261	0.090485	-0.14786	-0.13855	0.26093	-0.43289	-0.036621	0.043335	-0.008698	-0.041351	-0.31006	0.000458	-0.00946
43.975	0.008392	0.20599	-0.075073	-0.00946	-0.008087	-0.051727	0.23209	0.008698	0.224	0.072021	-0.055084	-0.014343	0.05127	-0.074005	-0.065155	-0.008545	0.009308	0.3035	-0.44754	-0.10346	0.071259	-0.1091	0.019379	0.13733	-0.23727	-0.023956	0.13886	0.08667	-0.048218	-0.1445	0.00061	-0.015411
43.976	0.009613	0.22507	-0.075073	-0.017395	-0.013123	-0.034485	0.19836	0.014038	0.21515	0.06958	-0.060272	-0.00824	0.028076	-0.17624	-0.058441	-0.016022	-0.005035	0.39475	-0.48263	-0.24155	0.037079	-0.08606	-0.040588	-0.014954	-0.13855	-0.008698	0.30823	0.14572	-0.10849	0.28336	-0.000916	-0.014038
43.977	0.011139	0.19943	-0.045319	0.015259	-0.016785	-0.008698	0.19394	0.013733	0.20523	-0.053253	0.02533	-0.015106	0.014801	-0.18295	-0.29709	-0.001678	-0.010681	0.45853	-0.36468	-0.18829	-0.10101	-0.059967	0.039673	-0.028381	-0.059204	-0.001373	0.14221	-0.075226	-0.11765	0.19867	-0.001221	-0.007324
43.978	0.010986	0.20966	-0.071106	0.023804	-0.014801	-0.018311	0.15625	0.014191	0.20126	-0.086365	0.080872	-0.006409	-0.026855	-0.14633	-0.045013	-0.016785	-0.010223	0.43716	0.17273	0.03479	-0.027466	-0.037994	0.19867	0.003662	-0.046844	-0.011139	0.035095	0.032806	-0.13809	-0.053101	0.000916	-0.010681
43.979	0.008545	0.18616	-0.099182	-0.00473	-0.020142	-0.003357	0.11108	0.016632	0.1973	-0.054626	0.072632	-0.00824	0.035553	-0.18707	-0.0354	0.001984	0.007935	0.3923	0.27206	0.29159	-0.033569	-0.048523	0.17242	-0.010529	-0.079346	-0.012512	-0.15839	0.11627	-0.016479	-0.2533	-0.002747	-0.007477
43.98	0.010834	0.15366	-0.081787	0.003052	-0.01709	0.005951	0.089569	0.015869	0.18249	-0.075989	0.14084	-0.007019	0.11566	-0.11902	0.25009	0.009155	0.015564	0.41107	-0.10468	0.3894	-0.068512	-0.048218	0.009155	0.016022	-0.081787	-0.003357	-0.44952	0.012512	0.13886	-0.33447	-0.000916	-0.000153
43.981	-0.00061	0.13397	-0.080566	0.037384	-0.023346	0.011597	0.07019	0.009918	0.20004	-0.054169	0.13733	0.003357	0.15259	-0.037689	0.031738	0.020752	-0.00824	0.36606	-0.67459	0.15976	-0.18585	-0.031586	-0.16937	0.022125	0.001678	0.018616	-0.059357	-0.012054	0.2272	-0.37262	0.000305	-0.004272
43.982	-0.003357	0.12589	-0.088959	0.022736	-0.020905	-0.003204	0.025635	0.006866	0.19012	-0.037231	0.035095	0.000305	0.16235	-0.063171	-0.22873	0.007477	0.005188	0.37857	-0.34805	0.08255	-0.26627	-0.030212	-0.13138	0.00473	0.001678	0.019531	-0.086365	-0.023193	0.032196	-0.57373	-0.000305	-0.001373
43.983	-0.003967	0.1088	-0.060883	-0.002899	-0.026398	-0.027771	0.005035	0.009308	0.18387	-0.007935	0.010681	-0.001678	0.13107	-0.13886	-0.25406	-0.004272	0.012665	0.41824	-0.009155	0.080719	-0.22415	0.007019	0.075684	-0.023041	-0.050354	-0.032806	-0.34409	-0.04364	-0.39139	-0.66605	0.00473	-0.001221
43.984	-0.005188	0.12711	-0.00946	0.001984	-0.027008	-0.041199	-0.015564	0.008087	0.17563	0.006866	0.07309	0.001373	0.026703	-0.15625	0.010681	0.001678	0.022278	0.4483	0.13001	0.1062	-0.01358	0.027771	0.11948	0.006409	-0.024261	-0.049744	0.036926	-0.096893	-0.79758	-0.48508	-0.000916	-0.013428
43.985	0.001984	0.090942	-0.005493	0.006256	-0.019531	-0.052032	-0.034332	0.009613	0.1593	0.021667	0.058746	-0.009918	-0.023651	-0.10483	0.24109	0.007172	0.014954	0.41061	-0.28854	0.14938	0.33875	0.046539	-0.008698	-0.013123	0.040283	-0.039978	0.43747	-0.30228	-1.1906	-0.43121	-0.000916	-0.018311
43.986	0.003357	0.048981	-0.011292	-0.006561	-0.015869	-0.064087	-0.05661	0.011749	0.16159	0.014496	0.074768	0.000458	0.010071	-0.016785	0.28214	0.014343	-0.019989	0.36957	-0.42801	0.053253	0.11108	0.064697	-0.31097	-0.083923	0.080414	0.006409	0.60593	-0.1239	-0.7547	-0.46143	0	-0.018616
43.987	0.001526	0.077515	-0.01236	0.00824	-0.013428	-0.054932	-0.069122	0.008698	0.15945	0.005035	-0.13077	0.009613	0.074463	0.068054	0.32989	0.028229	-0.022888	0.38361	-0.085602	0.005646	-0.059967	0.065002	-0.11871	-0.03418	0.070953	0.018005	0.56747	0.27023	0.45868	-0.8786	-0.007324	-0.01709
43.988	-0.001678	0.054169	-0.05249	0.019684	-0.020905	-0.050659	-0.077667	0.008545	0.15884	0.005798	-0.12817	-0.001526	0.083008	0.042572	0.1297	0.024567	0.006104	0.46112	-0.121	0.01358	0.068512	-0.032196	0.035095	-0.031433	0.05249	-0.022278	0.3949	-0.10559	0.4332	-0.9993	-0.006256	-0.014648
43.989	0.009918	0.028687	-0.061035	0.025024	-0.024719	-0.064087	-0.10284	0.00351	0.16373	0.01236	0.05661	0.002899	0.056152	-0.022736	0.58624	0.03067	0.01297	0.46234	-0.45136	0.032501	0.095673	-0.066528	0.011444	-0.045624	0.016937	-0.01358	-0.23178	-0.21545	0.35172	-0.42297	0.004883	-0.003357
43.99	0.003357	-0.005798	-0.062866	0.014343	-0.022278	-0.051727	-0.10864	0.003815	0.15793	0.001526	0.079041	0.009003	0.088959	-0.023956	-0.12054	0.019989	-0.005951	0.43991	-0.60425	0.016785	0.08255	-0.062714	-0.031433	-0.066071	0.010681	0.000305	-0.26382	0.23636	0.39963	0.46448	0.00061	-0.00824
43.991	0.007629	0.025635	-0.061493	-0.001984	-0.010529	-0.07019	-0.11871	0.005341	0.14999	0.00824	-0.012512	0.011597	0.1651	-0.068359	-0.12421	0.023193	0.006104	0.38086	-0.20706	-0.075531	-0.06073	-0.10529	0.038757	-0.064545	0.010834	0.021057	0.18387	0.13336	0.40451	1.3812	0.00473	-0.000458
43.992	0.003967	0.073547	-0.079346	0.006866	-0.02121	-0.057831	-0.14206	0.006104	0.15625	-0.003204	-0.066376	0.010681	0.13886	-0.29678	-0.02182	0.024109	0.010376	0.45044	0.14938	-0.06897	-0.13687	-0.11169	0.093231	-0.052032	0.031281	0.017853	0.54367	0.094147	0.028229	2.2279	0.002289	0.001678
43.993	0.013123	0.023041	-0.1207	0.001068	-0.025787	-0.07782	-0.13718	0.006561	0.15732	0.007477	0.042419	0.002747	0.011444	-0.26215	-0.021362	0.02655	-0.011597	0.42511	-0.057678	-0.024872	0.016937	-0.083008	0.001221	-0.11185	0.027771	0.005493	0.67154	-0.19165	-0.45685	2.2475	0.000305	-0.010223
43.994	-0.000305	-0.034485	-0.10971	0.013428	-0.024872	-0.078888	-0.15869	0.006104	0.15747	0.008545	0.058594	0.015564	-0.031433	-0.27405	-0.048065	-0.003967	0.005493	0.21698	-0.20218	-0.020294	0.13077	-0.054016	0.018616	-0.10651	0.056152	-0.030365	0.64545	-0.025482	-0.11185	1.1374	-0.010223	-0.003357
43.995	-0.025177	-0.059357	-0.10101	0.024872	-0.021973	-0.1062	-0.14328	0.007935	0.15717	-0.032043	0.13962	0.004425	-0.006561	-0.16144	-0.081177	0.024261	0.0354	0.19272	-0.13458	-0.035858	-0.041199	-0.023956	-0.002594	-0.19836	-0.019226	-0.027008	-0.52139	-0.0383	0.13916	-0.63828	-0.003662	0.002289
43.996	0.004272	-0.036163	-0.090485	0.003052	-0.011749	-0.10407	-0.15884	0.009003	0.14465	-0.057068	0.005951	0.007782	0.032654	-0.039063	-0.052795	0.015717	0.045319	0.22461	-0.021362	-0.043182	-0.16235	-0.073853	-0.000305	-0.094452	-0.009613	-0.022278	-0.57175	-0.084686	0.14053	-1.5627	0.000916	-0.003967
